<?xml version="1.0" standalone="no"?>
<!DOCTYPE svg PUBLIC "-//W3C//DTD SVG 20010904//EN"
 "http://www.w3.org/TR/2001/REC-SVG-20010904/DTD/svg10.dtd">
<svg version="1.0" xmlns="http://www.w3.org/2000/svg"
 width="512.000000pt" height="512.000000pt" viewBox="0 0 512.000000 512.000000"
 preserveAspectRatio="xMidYMid meet">
<metadata>
Created by potrace 1.14, written by Peter Selinger 2001-2017
</metadata>
<g transform="translate(0.000000,512.000000) scale(0.100000,-0.100000)"
fill="#000000" stroke="none">
<path d="M3514 4896 c-3 -10 -88 -430 -100 -496 -3 -14 -21 -104 -40 -200 -20
-96 -38 -185 -40 -197 -6 -35 -9 -52 -59 -298 -26 -126 -49 -239 -51 -250 -2
-11 -16 -78 -30 -150 -14 -71 -28 -139 -30 -150 -2 -11 -31 -153 -64 -315 -34
-162 -63 -306 -65 -320 -2 -14 -11 -58 -19 -97 -9 -40 -18 -85 -21 -100 -2
-16 -38 -195 -80 -400 -41 -204 -75 -374 -75 -377 0 -11 -359 4 -453 20 -20 3
-47 7 -60 8 -78 10 -243 59 -324 97 -160 76 -280 214 -317 364 -5 17 -10 39
-13 50 -3 11 -6 67 -8 125 -3 117 6 195 40 345 9 39 18 81 21 95 3 14 26 120
50 235 25 116 47 221 50 235 4 21 9 46 20 95 4 19 13 60 37 178 16 76 21 117
13 113 -39 -16 -1181 -522 -1224 -541 -29 -14 -55 -25 -58 -25 -3 0 -30 -12
-61 -27 -35 -18 -59 -36 -65 -53 -8 -21 -44 -139 -52 -175 -2 -5 -6 -21 -9
-35 -4 -14 -9 -36 -11 -50 -3 -14 -12 -61 -20 -105 -9 -44 -18 -96 -21 -115
-2 -19 -7 -62 -11 -95 -15 -125 -8 -467 11 -564 2 -12 7 -42 9 -65 6 -47 13
-80 21 -106 3 -10 8 -28 10 -40 21 -109 101 -327 157 -429 249 -451 680 -726
1278 -817 25 -3 53 -8 62 -9 9 -2 48 -7 85 -10 37 -4 82 -8 98 -10 60 -7 322
-18 403 -18 71 1 87 4 115 25 17 14 57 42 87 63 137 96 456 320 465 327 6 5
64 46 130 92 66 46 140 98 165 115 25 18 115 81 200 141 180 127 157 111 285
201 55 39 103 74 108 78 4 4 17 54 28 112 11 57 23 113 25 124 3 11 7 31 8 45
2 14 6 39 10 55 7 34 6 26 40 210 15 77 32 163 38 190 6 28 12 57 13 65 1 8 5
29 8 45 4 17 9 46 12 65 4 19 11 55 16 80 6 25 12 56 14 70 3 14 7 36 10 50 3
14 7 36 10 50 2 14 10 57 18 95 9 39 18 86 21 105 6 39 11 62 26 135 6 28 13
66 15 85 3 19 8 43 11 52 3 10 7 29 10 43 8 49 12 72 44 235 18 91 34 174 36
185 2 11 6 31 9 45 3 14 8 41 11 60 4 19 8 44 11 55 14 70 24 123 28 145 3 14
7 36 10 50 3 14 8 39 11 55 3 17 14 77 26 135 11 58 22 114 23 125 2 11 13 67
25 125 12 58 23 112 24 120 12 60 19 97 21 110 3 23 45 242 52 270 3 14 7 30
9 35 1 6 9 52 18 102 9 51 19 99 22 106 4 11 -105 13 -622 13 -435 0 -627 -3
-630 -10z"/>
</g>
</svg>
