<?xml version="1.0" standalone="no"?>
<!DOCTYPE svg PUBLIC "-//W3C//DTD SVG 20010904//EN"
 "http://www.w3.org/TR/2001/REC-SVG-20010904/DTD/svg10.dtd">
<svg version="1.0" xmlns="http://www.w3.org/2000/svg"
 width="800.000000pt" height="800.000000pt" viewBox="0 0 800.000000 800.000000"
 preserveAspectRatio="xMidYMid meet">
<metadata>
Created by potrace 1.14, written by Peter Selinger 2001-2017
</metadata>
<g transform="translate(0.000000,800.000000) scale(0.100000,-0.100000)"
fill="#000000" stroke="none">
<path d="M3925 7118 c-108 -14 -129 -17 -185 -28 -67 -14 -84 -18 -87 -20 -2
-2 -11 -3 -20 -4 -10 -1 -34 -7 -54 -14 -20 -7 -45 -14 -55 -17 -10 -2 -57
-18 -104 -35 -47 -18 -95 -34 -108 -37 -12 -3 -25 -9 -28 -14 -3 -5 -14 -9
-25 -9 -10 0 -19 -4 -19 -10 0 -5 -6 -10 -14 -10 -34 0 -272 -134 -421 -238
-198 -137 -429 -352 -592 -549 -10 -12 -25 -30 -33 -40 -120 -145 -224 -303
-371 -561 -11 -18 -19 -39 -19 -47 0 -8 -6 -18 -12 -22 -17 -10 -48 -78 -48
-103 0 -10 -4 -21 -9 -25 -5 -3 -17 -28 -26 -55 -9 -28 -21 -50 -26 -50 -5 0
-9 -9 -9 -19 0 -11 -4 -22 -9 -25 -5 -3 -12 -18 -16 -33 -3 -15 -15 -45 -26
-67 -24 -49 -60 -145 -63 -166 -1 -9 -5 -20 -8 -25 -4 -8 -17 -56 -23 -85 0
-3 -6 -14 -11 -25 -6 -11 -17 -49 -24 -85 -8 -36 -20 -80 -27 -98 -7 -18 -16
-54 -19 -79 -3 -26 -8 -51 -10 -55 -3 -5 -9 -32 -15 -61 -25 -141 -31 -174
-34 -202 -2 -16 -6 -43 -9 -60 -15 -69 -26 -415 -16 -492 4 -29 4 -53 0 -53
-9 0 -2 -86 10 -122 5 -15 5 -30 0 -33 -9 -5 -8 -23 1 -40 3 -5 6 -28 7 -50 0
-22 4 -67 7 -100 4 -33 8 -71 10 -85 1 -14 3 -25 5 -25 3 0 8 -35 15 -105 4
-36 13 -92 21 -125 8 -33 17 -77 20 -98 3 -21 10 -51 16 -65 7 -15 12 -31 13
-37 1 -5 7 -28 15 -50 8 -22 15 -43 16 -47 1 -5 3 -10 4 -13 1 -3 3 -8 4 -12
5 -24 41 -109 48 -114 5 -3 10 -16 11 -27 1 -12 5 -22 9 -22 4 0 5 -7 2 -15
-4 -8 8 -45 26 -82 104 -218 127 -264 162 -321 21 -34 38 -64 38 -67 0 -14
183 -275 221 -315 8 -8 27 -32 42 -52 15 -21 65 -77 110 -125 207 -219 389
-369 592 -487 55 -32 116 -68 135 -79 53 -31 242 -123 270 -132 14 -4 30 -11
35 -15 6 -4 26 -12 45 -18 19 -6 67 -22 107 -36 39 -14 89 -28 110 -31 46 -6
78 -12 103 -20 25 -8 58 -15 95 -21 17 -2 43 -7 60 -9 16 -3 52 -8 80 -11 27
-3 75 -9 105 -13 64 -8 309 -6 390 3 30 4 73 8 95 10 22 2 58 8 80 12 22 4 47
8 55 9 8 1 26 5 40 8 14 4 37 9 53 12 83 15 134 30 248 70 37 13 70 21 73 18
3 -4 6 -1 6 5 0 7 7 12 15 12 15 0 80 29 245 108 243 117 510 312 730 533 90
90 134 139 195 214 64 78 225 303 225 313 0 5 9 19 20 32 11 13 20 29 20 37 0
7 3 13 8 13 8 0 7 -3 93 171 85 173 102 211 102 227 0 6 4 12 9 12 4 0 7 3 6
8 -2 9 8 37 28 77 7 17 15 39 17 50 1 11 5 25 8 30 11 18 48 150 53 185 8 58
18 104 26 115 13 19 21 65 10 65 -5 0 -10 5 -10 11 0 5 5 7 12 3 8 -5 10 4 6
33 -3 22 -1 48 5 59 7 10 12 28 13 39 1 11 4 27 7 35 12 32 15 60 7 65 -10 6
-9 45 1 45 4 0 7 21 8 48 1 126 7 208 14 213 11 8 -3 60 -14 53 -13 -7 -5 36
8 44 11 8 12 177 0 188 -4 4 -3 12 2 18 5 6 7 24 4 39 -3 16 -9 24 -12 19 -3
-6 -6 49 -6 121 1 73 -1 137 -4 142 -8 16 -13 47 -26 179 -5 52 -15 86 -25 86
-5 0 -7 11 -5 25 1 14 -1 28 -6 31 -5 2 -8 19 -8 37 0 28 -3 48 -15 92 -19 72
-28 95 -35 95 -5 0 -6 11 -4 25 3 13 -4 44 -16 69 -12 24 -24 57 -27 73 -3 15
-11 40 -19 56 -10 19 -10 27 -2 27 7 0 3 8 -8 16 -13 10 -16 18 -8 21 17 6 7
35 -64 191 -18 41 -33 76 -33 79 0 2 -11 29 -25 59 -14 30 -25 57 -25 59 0 9
-55 121 -75 155 -12 19 -25 46 -30 60 -4 14 -18 37 -32 52 -14 14 -24 29 -24
32 2 7 -69 138 -79 146 -3 3 -17 23 -30 45 -24 39 -169 245 -180 255 -3 3 -23
28 -45 55 -22 28 -51 64 -65 80 -32 39 -307 314 -340 340 -248 199 -374 282
-573 379 -170 83 -344 141 -512 171 -22 4 -49 9 -60 11 -70 13 -118 16 -265
18 -91 1 -192 -1 -225 -6z"/>
</g>
</svg>
